<svg width="312" height="312" xmlns="http://www.w3.org/2000/svg" xmlns:xlink="http://www.w3.org/1999/xlink" overflow="hidden"><defs><clipPath id="clip0"><rect x="452" y="165" width="312" height="312"/></clipPath><clipPath id="clip1"><rect x="453" y="166" width="310" height="310"/></clipPath><clipPath id="clip2"><rect x="453" y="166" width="310" height="310"/></clipPath></defs><g clip-path="url(#clip0)" transform="translate(-452 -165)"><g clip-path="url(#clip1)"><g clip-path="url(#clip2)"><g><path d="M225.699 81.8792C217.883 75.9523 219.251 108.802 176.108 113.849 156.319 116.163 139.537 112.571 125.348 107.805 140.873 97.5832 151.131 80.025 151.131 60.051 151.131 28.4812 125.541 2.88631 93.9684 2.88631 66.4105 2.88631 43.4237 22.3822 38.0154 48.3287 17.4595 44.0081 0.809483 40.158 0.809483 57.7946 0.809483 74.1891 25.2255 90.5179 51.1897 100.368 24.1605 112.437 5.3097 139.535 5.3097 171.049 5.3097 213.787 40.1934 243.993 82.6988 248.435 143.053 254.744 214.652 244.408 241.689 190.115 261.028 151.282 252.341 102.071 225.699 81.8792Z" fill="#FFDE5A" transform="matrix(1 0 0 1 485.255 194.519)"/><path d="M48.7726 117.66 70.9067 117.66 59.8786 91.6426ZM38.5215 139.794 38.3662 139.716C35.5703 146.085 32.6967 152.376 29.8233 158.744L2.87387 158.744 59.6461 31.5321 116.573 158.744 89.5468 158.744C86.751 152.453 83.955 146.085 81.1591 139.794L38.522 139.794ZM99.72 33.8628 128.145 33.8628 149.735 73.5486 171.325 33.8628 199.828 33.8628 162.238 102.905 162.238 159.056 137.231 159.056 137.231 102.905ZM253.649 33.2425 253.571 33.5531C262.27 33.5531 270.424 35.1841 278.112 38.5236 285.801 41.8631 292.558 46.3676 298.382 52.0369L280.52 69.8995C272.986 62.4438 264.055 58.7156 253.726 58.7156 243.241 58.7156 234.31 62.4434 226.932 69.8995 219.555 77.3556 215.826 86.2862 215.826 96.6931 215.826 107.178 219.554 116.109 226.932 123.487 234.311 130.864 243.242 134.593 253.726 134.593 264.21 134.593 273.142 130.865 280.598 123.409L298.46 141.271C292.635 147.019 285.879 151.523 278.19 154.863 270.502 158.202 262.347 159.833 253.649 159.833 236.252 159.833 221.341 153.62 208.993 141.271 196.644 128.923 190.431 114.012 190.431 96.6152 190.431 79.2186 196.644 64.3072 208.993 51.881 221.341 39.4549 236.252 33.2414 253.649 33.2414ZM347.855 117.66 369.989 117.66 358.961 91.6426ZM337.604 139.794 337.448 139.716C334.652 146.085 331.779 152.376 328.905 158.744L301.956 158.744 358.728 31.5321 415.656 158.744 388.629 158.744C385.833 152.453 383.037 146.085 380.241 139.794L337.604 139.794ZM425.208 31.5326 500.309 103.06 500.309 33.862 525.394 33.862 525.394 161.384 450.293 89.7785 450.293 159.054 425.208 159.054 425.208 31.5318ZM568.652 34.1729 568.652 34.0953C585.816 34.0953 602.047 40.2307 614.318 52.5019 636.685 74.869 636.685 118.438 614.318 140.73 602.047 152.923 585.816 159.058 568.652 159.058L537.742 159.058 537.742 34.1764 568.652 34.1764ZM568.73 133.97 568.808 133.97C579.06 133.97 588.534 131.096 595.834 123.796 603.134 116.495 606.008 106.865 606.008 96.5359 606.008 86.2841 603.135 76.6541 595.756 69.2763 588.456 61.8983 578.826 59.0245 568.574 59.0245L562.827 59.0245 562.827 133.97 568.729 133.97ZM700.524 33.2425C717.921 33.2425 732.832 39.4555 745.259 51.8821 757.685 64.3087 763.898 79.2197 763.898 96.6163 763.898 114.013 757.685 128.924 745.259 141.273 732.832 153.621 717.921 159.834 700.524 159.834 683.128 159.834 668.216 153.621 655.868 141.273 643.52 128.924 637.307 114.013 637.307 96.6163 637.307 79.2197 643.52 64.3083 655.868 51.8821 668.217 39.4559 683.128 33.2425 700.524 33.2425ZM700.524 58.4845C690.04 58.4845 681.109 62.2123 673.731 69.6684 666.353 77.1245 662.625 86.055 662.625 96.462 662.625 106.947 666.353 115.878 673.731 123.256 681.109 130.633 690.04 134.362 700.524 134.362 710.931 134.362 719.862 130.634 727.318 123.256 734.774 115.877 738.502 106.946 738.502 96.462 738.502 86.055 734.774 77.1241 727.318 69.6684 719.862 62.2127 710.931 58.4845 700.524 58.4845ZM833.174 33.2425C850.57 33.2425 865.482 39.4555 877.908 51.8821 890.334 64.3087 896.548 79.2197 896.548 96.6163 896.548 114.013 890.334 128.924 877.908 141.273 865.481 153.621 850.57 159.834 833.174 159.834 815.777 159.834 800.866 153.621 788.517 141.273 776.169 128.924 769.956 114.013 769.956 96.6163 769.956 79.2197 776.169 64.3083 788.517 51.8821 800.866 39.4559 815.777 33.2425 833.174 33.2425ZM833.174 58.4845C822.689 58.4845 813.758 62.2123 806.38 69.6684 799.002 77.1245 795.274 86.055 795.274 96.462 795.274 106.947 799.002 115.878 806.38 123.256 813.758 130.633 822.69 134.362 833.174 134.362 843.581 134.362 852.512 130.634 859.967 123.256 867.423 115.877 871.151 106.946 871.151 96.462 871.151 86.055 867.423 77.1241 859.967 69.6684 852.511 62.2127 843.581 58.4845 833.174 58.4845Z" fill="#FFFFFF" transform="matrix(1 0 0 1 800.525 224.76)"/></g></g></g></g></svg>