
        <svg xmlns="http://www.w3.org/2000/svg" xmlns:xlink="http://www.w3.org/1999/xlink" version="1.1" width="3162.087369045266" 
        height="774.4453888136115" viewBox="0 0 3162.087369045266 774.4453888136115">
			
			<g transform="scale(8.104368452263293) translate(10, 10)">
				<defs id="SvgjsDefs28596"></defs><g id="SvgjsG28597" featureKey="1p4tPl-0" transform="matrix(0.7732378609151928,0,0,0.7732378609151928,-0.24743292985103968,-0.8822649774392323)" fill="#ffde5a"><path xmlns="http://www.w3.org/2000/svg" fill="#FFDE5A" d="M89.222,32.368c-3.09-2.343-2.549,10.643-19.604,12.638c-7.823,0.915-14.457-0.505-20.066-2.389  c6.137-4.041,10.192-10.982,10.192-18.878c0-12.48-10.116-22.598-22.597-22.598c-10.894,0-19.981,7.707-22.119,17.964  c-8.126-1.708-14.708-3.23-14.708,3.742c0,6.481,9.652,12.936,19.916,16.83C9.551,44.448,2.099,55.16,2.099,67.618  c0,16.895,13.79,28.836,30.593,30.592c23.859,2.494,52.163-1.592,62.851-23.055C103.188,59.804,99.754,40.35,89.222,32.368z"></path></g><g id="SvgjsG28598" featureKey="dYASrj-0" transform="matrix(2.430928176195344,0,0,2.430928176195344,96.1215375925937,8.361610515086992)" fill="#ffffff"><path d="M6.1328 14.7949 l2.7832 0 l-1.3867 -3.2715 z M4.8438 17.5781 l-0.019531 -0.0097656 c-0.35156 0.80078 -0.71289 1.5918 -1.0742 2.3926 l-3.3887 0 l7.1387 -15.996 l7.1582 15.996 l-3.3984 0 c-0.35156 -0.79102 -0.70313 -1.5918 -1.0547 -2.3828 l-5.3613 0 z M12.5390675 4.257999999999999 l3.5742 0 l2.7148 4.9902 l2.7148 -4.9902 l3.584 0 l-4.7266 8.6816 l0 7.0605 l-3.1445 0 l0 -7.0605 z M31.8944875 4.18 l-0.0097656 0.039063 c1.0938 0 2.1191 0.20508 3.0859 0.625 s1.8164 0.98633 2.5488 1.6992 l-2.2461 2.2461 c-0.94727 -0.9375 -2.0703 -1.4063 -3.3691 -1.4063 c-1.3184 0 -2.4414 0.46875 -3.3691 1.4063 s-1.3965 2.0605 -1.3965 3.3691 c0 1.3184 0.46875 2.4414 1.3965 3.3691 s2.0508 1.3965 3.3691 1.3965 s2.4414 -0.46875 3.3789 -1.4063 l2.2461 2.2461 c-0.73242 0.72266 -1.582 1.2891 -2.5488 1.709 s-1.9922 0.625 -3.0859 0.625 c-2.1875 0 -4.0625 -0.78125 -5.6152 -2.334 s-2.334 -3.4277 -2.334 -5.6152 s0.78125 -4.0625 2.334 -5.625 s3.4277 -2.3438 5.6152 -2.3438 z M43.740221875 14.7949 l2.7832 0 l-1.3867 -3.2715 z M42.451221875 17.5781 l-0.019531 -0.0097656 c-0.35156 0.80078 -0.71289 1.5918 -1.0742 2.3926 l-3.3887 0 l7.1387 -15.996 l7.1582 15.996 l-3.3984 0 c-0.35156 -0.79102 -0.70313 -1.5918 -1.0547 -2.3828 l-5.3613 0 z M53.466796875 3.965 l9.4434 8.9941 l0 -8.7012 l3.1543 0 l0 16.035 l-9.4434 -9.0039 l0 8.7109 l-3.1543 0 l0 -16.035 z M71.503903125 4.297000000000001 l0 -0.0097656 c2.1582 0 4.1992 0.77148 5.7422 2.3145 c2.8125 2.8125 2.8125 8.291 0 11.094 c-1.543 1.5332 -3.584 2.3047 -5.7422 2.3047 l-3.8867 0 l0 -15.703 l3.8867 0 z M71.513703125 16.8457 l0.0097656 0 c1.2891 0 2.4805 -0.36133 3.3984 -1.2793 s1.2793 -2.1289 1.2793 -3.4277 c0 -1.2891 -0.36133 -2.5 -1.2891 -3.4277 c-0.91797 -0.92773 -2.1289 -1.2891 -3.418 -1.2891 l-0.72266 0 l0 9.4238 l0.74219 0 z M88.08589375 4.18 c2.1875 0 4.0625 0.78125 5.625 2.3438 s2.3438 3.4375 2.3438 5.625 s-0.78125 4.0625 -2.3438 5.6152 s-3.4375 2.334 -5.625 2.334 s-4.0625 -0.78125 -5.6152 -2.334 s-2.334 -3.4277 -2.334 -5.6152 s0.78125 -4.0625 2.334 -5.625 s3.4277 -2.3438 5.6152 -2.3438 z M88.08589375 7.353999999999999 c-1.3184 0 -2.4414 0.46875 -3.3691 1.4063 s-1.3965 2.0605 -1.3965 3.3691 c0 1.3184 0.46875 2.4414 1.3965 3.3691 s2.0508 1.3965 3.3691 1.3965 c1.3086 0 2.4316 -0.46875 3.3691 -1.3965 s1.4063 -2.0508 1.4063 -3.3691 c0 -1.3086 -0.46875 -2.4316 -1.4063 -3.3691 s-2.0605 -1.4063 -3.3691 -1.4063 z M104.76558125 4.18 c2.1875 0 4.0625 0.78125 5.625 2.3438 s2.3438 3.4375 2.3438 5.625 s-0.78125 4.0625 -2.3438 5.6152 s-3.4375 2.334 -5.625 2.334 s-4.0625 -0.78125 -5.6152 -2.334 s-2.334 -3.4277 -2.334 -5.6152 s0.78125 -4.0625 2.334 -5.625 s3.4277 -2.3438 5.6152 -2.3438 z M104.76558125 7.353999999999999 c-1.3184 0 -2.4414 0.46875 -3.3691 1.4063 s-1.3965 2.0605 -1.3965 3.3691 c0 1.3184 0.46875 2.4414 1.3965 3.3691 s2.0508 1.3965 3.3691 1.3965 c1.3086 0 2.4316 -0.46875 3.3691 -1.3965 s1.4063 -2.0508 1.4063 -3.3691 c0 -1.3086 -0.46875 -2.4316 -1.4063 -3.3691 s-2.0605 -1.4063 -3.3691 -1.4063 z"></path></g>
			</g>
		</svg>
	